<?xml version="1.0" encoding="utf-8"?>
<!-- Generator: Adobe Illustrator 17.0.0, SVG Export Plug-In . SVG Version: 6.00 Build 0)  -->
<!DOCTYPE svg PUBLIC "-//W3C//DTD SVG 1.1//EN" "http://www.w3.org/Graphics/SVG/1.1/DTD/svg11.dtd">
<svg version="1.1" id="Layer_1" xmlns="http://www.w3.org/2000/svg" xmlns:xlink="http://www.w3.org/1999/xlink" x="0px" y="0px"
	 width="1280px" height="800px" viewBox="0 0 1280 800" enable-background="new 0 0 1280 800" xml:space="preserve">
<g>
	<g>
		<g>
			<g opacity="0.15">
				<g>
					<g>
						<polygon fill="#575757" points="1280,0 1208.293457,55.925499 1280,80.631691 						"/>
						<polygon fill="#666666" points="1199.286499,97.0453491 1208.293457,55.925499 1280,80.631691 						"/>
						<polygon fill="#484848" points="1280,114.3137589 1199.286499,97.0453491 1280,80.631691 						"/>
						<polygon fill="#A8A8A8" points="1136.8414307,132.113739 1280,114.3137589 1280,132.0018768 						"/>
						<polygon fill="#1F1F1F" points="1199.286499,97.0453491 1136.8414307,132.113739 1280,114.3137589 						"/>
						<polygon fill="#888888" points="1208.293457,55.925499 1154.4378662,0 1280,0 						"/>
						<polygon fill="#B9B9B9" points="1199.286499,97.0453491 1127.5983887,80.7509537 1208.293457,55.925499 						"/>
						<polygon fill="#8F8F8F" points="1127.5983887,80.7509537 1199.286499,97.0453491 1136.8414307,132.113739 						"/>
						<polygon fill="#484848" points="1078.5465088,79.827713 1136.8414307,132.113739 1127.5983887,80.7509537 						"/>
						<polygon fill="#A8A8A8" points="1053.5882568,0 1127.5983887,80.7509537 1154.4378662,0 						"/>
						<polygon fill="#E1E1E1" points="1208.293457,55.925499 1127.5983887,80.7509537 1154.4378662,0 						"/>
						<polygon fill="#666666" points="1136.8414307,132.113739 1078.5465088,79.827713 1065.0606689,123.3272552 						"/>
						<polygon fill="#1F1F1F" points="1053.5882568,0 1078.5465088,79.827713 1127.5983887,80.7509537 						"/>
					</g>
					<g>
						<polygon fill="#8F8F8F" points="853.7998047,0 921.7870483,56.1553154 853.8167114,80.9705658 						"/>
						<polygon fill="#B9B9B9" points="930.8189697,97.2606964 921.7870483,56.1553154 853.8167114,80.9705658 						"/>
						<polygon fill="#E1E1E1" points="853.8269043,114.6526337 930.8189697,97.2606964 853.8167114,80.9705658 						"/>
						<polygon fill="#575757" points="993.2853394,132.2288971 853.8269043,114.6526337 853.8322754,132.3407593 						"/>
						<polygon fill="#888888" points="930.8189697,97.2606964 993.2853394,132.2288971 853.8269043,114.6526337 						"/>
						<polygon fill="#A8A8A8" points="921.7870483,56.1553154 975.6239014,0 853.7998047,0 						"/>
						<polygon fill="#484848" points="930.8189697,97.2606964 1002.4971313,80.8513031 921.7870483,56.1553154 						"/>
						<polygon fill="#666666" points="1002.4971313,80.8513031 930.8189697,97.2606964 993.2853394,132.2288971 						"/>
						<polygon fill="#E1E1E1" points="1078.5465088,79.827713 993.2853394,132.2288971 1002.4971313,80.8513031 						"/>
						<polygon fill="#575757" points="1053.5882568,0 1002.4971313,80.8513031 975.6239014,0 						"/>
						<polygon fill="#1F1F1F" points="921.7870483,56.1553154 1002.4971313,80.8513031 975.6239014,0 						"/>
						<polygon fill="#484848" points="993.2853394,132.2288971 1078.5465088,79.827713 1065.0606689,123.3272552 						"/>
						<polygon fill="#888888" points="1053.5882568,0 1078.5465088,79.827713 1002.4971313,80.8513031 						"/>
					</g>
					<g>
						<polygon fill="#575757" points="853.7998047,0 785.8312988,56.26437 853.8167114,80.9705658 						"/>
						<polygon fill="#666666" points="776.8244019,97.3842163 785.8312988,56.26437 853.8167114,80.9705658 						"/>
						<polygon fill="#484848" points="853.8269043,114.6526337 776.8244019,97.3842163 853.8167114,80.9705658 						"/>
						<polygon fill="#A8A8A8" points="714.3792114,132.4526062 853.8269043,114.6526337 853.8322754,132.3407593 						"/>
						<polygon fill="#1F1F1F" points="776.8244019,97.3842163 714.3792114,132.4526062 853.8269043,114.6526337 						"/>
						<polygon fill="#888888" points="785.8312988,56.26437 731.975647,0 853.7998047,0 						"/>
						<polygon fill="#B9B9B9" points="776.8244019,97.3842163 705.1362305,81.0898285 785.8312988,56.26437 						"/>
						<polygon fill="#8F8F8F" points="705.1362305,81.0898285 776.8244019,97.3842163 714.3792114,132.4526062 						"/>
						<polygon fill="#484848" points="642.5853271,80.1774139 714.3792114,132.4526062 705.1362305,81.0898285 						"/>
						<polygon fill="#A8A8A8" points="642.5687256,0 705.1362305,81.0898285 731.975647,0 						"/>
						<polygon fill="#E1E1E1" points="785.8312988,56.26437 705.1362305,81.0898285 731.975647,0 						"/>
						<polygon fill="#666666" points="714.3792114,132.4526062 642.5853271,80.1774139 642.6011963,132.5101929 						"/>
						<polygon fill="#1F1F1F" points="642.5687256,0 642.5853271,80.1774139 705.1362305,81.0898285 						"/>
					</g>
					<g>
						<polygon fill="#8F8F8F" points="432.3355103,0 499.3249207,56.4941864 432.352417,81.3086395 						"/>
						<polygon fill="#B9B9B9" points="508.356781,97.5995636 499.3249207,56.4941864 432.352417,81.3086395 						"/>
						<polygon fill="#E1E1E1" points="432.3626404,114.9907074 508.356781,97.5995636 432.352417,81.3086395 						"/>
						<polygon fill="#575757" points="570.8231812,132.5677643 432.3626404,114.9907074 432.3680115,132.678833 						"/>
						<polygon fill="#888888" points="508.356781,97.5995636 570.8231812,132.5677643 432.3626404,114.9907074 						"/>
						<polygon fill="#A8A8A8" points="499.3249207,56.4941864 553.1617432,0 432.3355103,0 						"/>
						<polygon fill="#484848" points="508.356781,97.5995636 580.0349731,81.1901779 499.3249207,56.4941864 						"/>
						<polygon fill="#666666" points="580.0349731,81.1901779 508.356781,97.5995636 570.8231812,132.5677643 						"/>
						<polygon fill="#E1E1E1" points="642.5853271,80.1774139 570.8231812,132.5677643 580.0349731,81.1901779 						"/>
						<polygon fill="#575757" points="642.5687256,0 580.0349731,81.1901779 553.1617432,0 						"/>
						<polygon fill="#1F1F1F" points="499.3249207,56.4941864 580.0349731,81.1901779 553.1617432,0 						"/>
						<polygon fill="#B9B9B9" points="570.8231812,132.5677643 642.5853271,80.1774139 642.6011963,132.5101929 						"/>
						<polygon fill="#888888" points="642.5687256,0 642.5853271,80.1774139 580.0349731,81.1901779 						"/>
					</g>
					<g>
						<polygon fill="#575757" points="432.3355103,0 365.3648682,56.6016426 432.352417,81.3086395 						"/>
						<polygon fill="#666666" points="356.3580017,97.721489 365.3648682,56.6016426 432.352417,81.3086395 						"/>
						<polygon fill="#484848" points="432.3626404,114.9907074 356.3580017,97.721489 432.352417,81.3086395 						"/>
						<polygon fill="#A8A8A8" points="293.9128418,132.7898865 432.3626404,114.9907074 432.3680115,132.678833 						"/>
						<polygon fill="#1F1F1F" points="356.3580017,97.721489 293.9128418,132.7898865 432.3626404,114.9907074 						"/>
						<polygon fill="#888888" points="365.3648682,56.6016426 311.5092773,0 432.3355103,0 						"/>
						<polygon fill="#B9B9B9" points="356.3580017,97.721489 284.6698608,81.4271011 365.3648682,56.6016426 						"/>
						<polygon fill="#8F8F8F" points="284.6698608,81.4271011 356.3580017,97.721489 293.9128418,132.7898865 						"/>
						<polygon fill="#484848" points="222.118927,80.5146866 293.9128418,132.7898865 284.6698608,81.4271011 						"/>
						<polygon fill="#A8A8A8" points="222.1023254,0 284.6698608,81.4271011 311.5092773,0 						"/>
						<polygon fill="#E1E1E1" points="365.3648682,56.6016426 284.6698608,81.4271011 311.5092773,0 						"/>
						<polygon fill="#666666" points="293.9128418,132.7898865 222.118927,80.5146866 222.1348267,132.8474579 						"/>
						<polygon fill="#1F1F1F" points="222.1023254,0 222.118927,80.5146866 284.6698608,81.4271011 						"/>
					</g>
					<g>
						<polygon fill="#8F8F8F" points="0,0 78.8585129,56.831459 0,81.6467133 						"/>
						<polygon fill="#B9B9B9" points="87.8903809,97.9368362 78.8585129,56.831459 0,81.6467133 						"/>
						<polygon fill="#E1E1E1" points="0,115.3287735 87.8903809,97.9368362 0,81.6467133 						"/>
						<polygon fill="#575757" points="150.3567963,132.9050293 0,115.3287735 0,133.0168915 						"/>
						<polygon fill="#888888" points="87.8903809,97.9368362 150.3567963,132.9050293 0,115.3287735 						"/>
						<polygon fill="#A8A8A8" points="78.8585129,56.831459 132.6953583,0 0,0 						"/>
						<polygon fill="#484848" points="87.8903809,97.9368362 159.568573,81.5274506 78.8585129,56.831459 						"/>
						<polygon fill="#666666" points="159.568573,81.5274506 87.8903809,97.9368362 150.3567963,132.9050293 						"/>
						<polygon fill="#E1E1E1" points="222.118927,80.5146866 150.3567963,132.9050293 159.568573,81.5274506 						"/>
						<polygon fill="#575757" points="222.1023102,0 159.568573,81.5274506 132.6953583,0 						"/>
						<polygon fill="#1F1F1F" points="78.8585129,56.831459 159.568573,81.5274506 132.6953583,0 						"/>
						<polygon fill="#B9B9B9" points="150.3567963,132.9050293 222.118927,80.5146866 222.1348114,132.8474579 						"/>
						<polygon fill="#888888" points="222.1023102,0 222.118927,80.5146866 159.568573,81.5274506 						"/>
					</g>
				</g>
				<g>
					<g>
						<polygon fill="#575757" points="1280,238.9981232 1208.3397217,208.1873169 1280,183.3720703 						"/>
						<polygon fill="#666666" points="1199.3078613,167.0819397 1208.3397217,208.1873169 1280,183.3720703 						"/>
						<polygon fill="#484848" points="1280,149.6900024 1199.3078613,167.0819397 1280,183.3720703 						"/>
						<polygon fill="#A8A8A8" points="1136.8414307,132.113739 1280,149.6900024 1280,132.0018768 						"/>
						<polygon fill="#1F1F1F" points="1199.3078613,167.0819397 1136.8414307,132.113739 1280,149.6900024 						"/>
						<polygon fill="#888888" points="1208.3397217,208.1873169 1154.5028076,239.0958405 1280,238.9981232 						"/>
						<polygon fill="#B9B9B9" points="1199.3078613,167.0819397 1127.6296387,183.491333 1208.3397217,208.1873169 						"/>
						<polygon fill="#8F8F8F" points="1127.6296387,183.491333 1199.3078613,167.0819397 1136.8414307,132.113739 						"/>
						<polygon fill="#484848" points="1078.572876,166.6896515 1136.8414307,132.113739 1127.6296387,183.491333 						"/>
						<polygon fill="#A8A8A8" points="1047.3195801,239.1818237 1127.6296387,183.491333 1154.5028076,239.0958405 						"/>
						<polygon fill="#E1E1E1" points="1208.3397217,208.1873169 1127.6296387,183.491333 1154.5028076,239.0958405 						"/>
						<polygon fill="#C4C4C4" points="1136.8414307,132.113739 1078.572876,166.6896515 1065.0606689,123.3272552 						"/>
						<polygon fill="#1F1F1F" points="1047.3195801,239.1818237 1078.572876,166.6896515 1127.6296387,183.491333 						"/>
					</g>
					<g>
						<polygon fill="#8F8F8F" points="853.8648071,239.3370056 921.833313,208.4171448 853.8479004,183.7109375 						"/>
						<polygon fill="#B9B9B9" points="930.84021,167.297287 921.833313,208.4171448 853.8479004,183.7109375 						"/>
						<polygon fill="#E1E1E1" points="853.8377075,150.0288696 930.84021,167.297287 853.8479004,183.7109375 						"/>
						<polygon fill="#575757" points="993.2853394,132.2288971 853.8377075,150.0288696 853.8322754,132.3407593 						"/>
						<polygon fill="#888888" points="930.84021,167.297287 993.2853394,132.2288971 853.8377075,150.0288696 						"/>
						<polygon fill="#A8A8A8" points="921.833313,208.4171448 975.6889038,239.2392731 853.8648071,239.3370056 						"/>
						<polygon fill="#484848" points="930.84021,167.297287 1002.5283203,183.5916748 921.833313,208.4171448 						"/>
						<polygon fill="#666666" points="1002.5283203,183.5916748 930.84021,167.297287 993.2853394,132.2288971 						"/>
						<polygon fill="#E1E1E1" points="1078.572876,166.6896515 993.2853394,132.2288971 1002.5283203,183.5916748 						"/>
						<polygon fill="#575757" points="1047.3195801,239.1818237 1002.5283203,183.5916748 975.6889038,239.2392731 						"/>
						<polygon fill="#1F1F1F" points="921.833313,208.4171448 1002.5283203,183.5916748 975.6889038,239.2392731 						"/>
						<polygon fill="#B9B9B9" points="993.2853394,132.2288971 1078.572876,166.6896515 1065.0606689,123.3272552 						"/>
						<polygon fill="#888888" points="1047.3195801,239.1818237 1078.572876,166.6896515 1002.5283203,183.5916748 						"/>
					</g>
					<g>
						<polygon fill="#575757" points="853.8648071,239.3370056 785.8775024,208.5261993 853.8479004,183.7109375 						"/>
						<polygon fill="#666666" points="776.8456421,167.4208221 785.8775024,208.5261993 853.8479004,183.7109375 						"/>
						<polygon fill="#484848" points="853.8376465,150.0288696 776.8456421,167.4208221 853.8479004,183.7109375 						"/>
						<polygon fill="#A8A8A8" points="714.3792114,132.4526215 853.8376465,150.0288696 853.8322754,132.3407593 						"/>
						<polygon fill="#1F1F1F" points="776.8456421,167.4208221 714.3792114,132.4526215 853.8376465,150.0288696 						"/>
						<polygon fill="#888888" points="785.8775024,208.5261993 732.0407104,239.4347229 853.8648071,239.3370056 						"/>
						<polygon fill="#B9B9B9" points="776.8456421,167.4208221 705.1674805,183.8302002 785.8775024,208.5261993 						"/>
						<polygon fill="#8F8F8F" points="705.1674805,183.8302002 776.8456421,167.4208221 714.3792114,132.4526215 						"/>
						<polygon fill="#484848" points="642.6171265,184.8429718 714.3792114,132.4526215 705.1674805,183.8302002 						"/>
						<polygon fill="#A8A8A8" points="662.8873291,246.9869843 705.1674805,183.8302002 732.0407104,239.4347229 						"/>
						<polygon fill="#E1E1E1" points="785.8775024,208.5261993 705.1674805,183.8302002 732.0407104,239.4347229 						"/>
						<polygon fill="#666666" points="714.3792114,132.4526215 642.6171265,184.8429718 642.6011963,132.5101929 						"/>
						<polygon fill="#1F1F1F" points="662.8873291,246.9869843 642.6171265,184.8429718 705.1674805,183.8302002 						"/>
					</g>
					<g>
						<polygon fill="#8F8F8F" points="432.4005127,239.6750641 499.3711548,208.756012 432.3836365,184.0490112 						"/>
						<polygon fill="#B9B9B9" points="508.3780518,167.6361694 499.3711548,208.756012 432.3836365,184.0490112 						"/>
						<polygon fill="#E1E1E1" points="432.3733826,150.3669434 508.3780518,167.6361694 432.3836365,184.0490112 						"/>
						<polygon fill="#575757" points="570.8231812,132.5677643 432.3733826,150.3669434 432.3680115,132.678833 						"/>
						<polygon fill="#888888" points="508.3780518,167.6361694 570.8231812,132.5677643 432.3733826,150.3669434 						"/>
						<polygon fill="#A8A8A8" points="499.3711548,208.756012 553.2267456,239.5781555 432.4005127,239.6750641 						"/>
						<polygon fill="#484848" points="508.3780518,167.6361694 580.0661621,183.9305573 499.3711548,208.756012 						"/>
						<polygon fill="#666666" points="580.0661621,183.9305573 508.3780518,167.6361694 570.8231812,132.5677643 						"/>
						<polygon fill="#E1E1E1" points="642.6171265,184.8429718 570.8231812,132.5677643 580.0661621,183.9305573 						"/>
						<polygon fill="#575757" points="662.8873291,246.9869843 580.0661621,183.9305573 553.2267456,239.5781555 						"/>
						<polygon fill="#1F1F1F" points="499.3711548,208.756012 580.0661621,183.9305573 553.2267456,239.5781555 						"/>
						<polygon fill="#B9B9B9" points="570.8231812,132.5677643 642.6171265,184.8429718 642.6011963,132.5101929 						"/>
						<polygon fill="#888888" points="662.8873291,246.9869843 642.6171265,184.8429718 580.0661621,183.9305573 						"/>
					</g>
					<g>
						<polygon fill="#575757" points="432.4005127,239.6750641 365.4111328,208.8634644 432.3836365,184.0490112 						"/>
						<polygon fill="#666666" points="356.3792725,167.7580872 365.4111328,208.8634644 432.3836365,184.0490112 						"/>
						<polygon fill="#484848" points="432.3733826,150.3669434 356.3792725,167.7580872 432.3836365,184.0490112 						"/>
						<polygon fill="#A8A8A8" points="293.9128418,132.7898865 432.3733826,150.3669434 432.3680115,132.678833 						"/>
						<polygon fill="#1F1F1F" points="356.3792725,167.7580872 293.9128418,132.7898865 432.3733826,150.3669434 						"/>
						<polygon fill="#888888" points="365.4111328,208.8634644 311.5742798,239.7719879 432.4005127,239.6750641 						"/>
						<polygon fill="#B9B9B9" points="356.3792725,167.7580872 284.7010803,184.1674805 365.4111328,208.8634644 						"/>
						<polygon fill="#8F8F8F" points="284.7010803,184.1674805 356.3792725,167.7580872 293.9128418,132.7898865 						"/>
						<polygon fill="#484848" points="222.1507263,185.1802368 293.9128418,132.7898865 284.7010803,184.1674805 						"/>
						<polygon fill="#A8A8A8" points="222.1673279,239.8437042 284.7010803,184.1674805 311.5742798,239.7719879 						"/>
						<polygon fill="#E1E1E1" points="365.4111328,208.8634644 284.7010803,184.1674805 311.5742798,239.7719879 						"/>
						<polygon fill="#666666" points="293.9128418,132.7898865 222.1507263,185.1802368 222.1348267,132.8474579 						"/>
						<polygon fill="#1F1F1F" points="222.1673279,239.8437042 222.1507263,185.1802368 284.7010803,184.1674805 						"/>
					</g>
					<g>
						<polygon fill="#8F8F8F" points="0,240.0131378 78.9047699,209.093277 0,184.387085 						"/>
						<polygon fill="#B9B9B9" points="87.9116592,167.9734344 78.9047699,209.093277 0,184.387085 						"/>
						<polygon fill="#E1E1E1" points="0,150.7050171 87.9116592,167.9734344 0,184.387085 						"/>
						<polygon fill="#575757" points="150.3567963,132.9050446 0,150.7050171 0,133.0168915 						"/>
						<polygon fill="#888888" points="87.9116592,167.9734344 150.3567963,132.9050446 0,150.7050171 						"/>
						<polygon fill="#A8A8A8" points="78.9047699,209.093277 132.7603607,239.9154205 0,240.0131378 						"/>
						<polygon fill="#484848" points="87.9116592,167.9734344 159.5997925,184.2678223 78.9047699,209.093277 						"/>
						<polygon fill="#666666" points="159.5997925,184.2678223 87.9116592,167.9734344 150.3567963,132.9050446 						"/>
						<polygon fill="#E1E1E1" points="222.1507263,185.1802368 150.3567963,132.9050446 159.5997925,184.2678223 						"/>
						<polygon fill="#575757" points="222.1673126,239.8437042 159.5997925,184.2678223 132.7603607,239.9154205 						"/>
						<polygon fill="#1F1F1F" points="78.9047699,209.093277 159.5997925,184.2678223 132.7603607,239.9154205 						"/>
						<polygon fill="#B9B9B9" points="150.3567963,132.9050446 222.1507263,185.1802368 222.1348114,132.8474579 						"/>
						<polygon fill="#888888" points="222.1673126,239.8437042 222.1507263,185.1802368 159.5997925,184.2678223 						"/>
					</g>
				</g>
				<g>
					<g>
						<polygon fill="#575757" points="1280,238.9981232 1208.3583984,269.9179993 1280,294.624176 						"/>
						<polygon fill="#666666" points="1199.3515625,311.0378418 1208.3583984,269.9179993 1280,294.624176 						"/>
						<polygon fill="#484848" points="1280,328.3062439 1199.3515625,311.0378418 1280,294.624176 						"/>
						<polygon fill="#A8A8A8" points="1136.9063721,346.1062317 1280,328.3062439 1280,345.9943542 						"/>
						<polygon fill="#1F1F1F" points="1199.3515625,311.0378418 1136.9063721,346.1062317 1280,328.3062439 						"/>
						<polygon fill="#888888" points="1208.3583984,269.9179993 1154.5028076,239.0958405 1280,238.9981232 						"/>
						<polygon fill="#B9B9B9" points="1199.3515625,311.0378418 1136.8895264,290.5316162 1208.3583984,269.9179993 						"/>
						<polygon fill="#8F8F8F" points="1136.8895264,290.5316162 1199.3515625,311.0378418 1136.9063721,346.1062317 						"/>
						<polygon fill="#484848" points="1078.6079102,281.809906 1136.9063721,346.1062317 1136.8895264,290.5316162 						"/>
						<polygon fill="#A8A8A8" points="1047.3195801,239.1818237 1136.8895264,290.5316162 1154.5028076,239.0958405 						"/>
						<polygon fill="#E1E1E1" points="1208.3583984,269.9179993 1136.8895264,290.5316162 1154.5028076,239.0958405 						"/>
						<polygon fill="#666666" points="1136.9063721,346.1062317 1078.6079102,281.809906 1053.6831055,337.3289185 						"/>
						<polygon fill="#1F1F1F" points="1047.3195801,239.1818237 1078.6079102,281.809906 1136.8895264,290.5316162 						"/>
					</g>
					<g>
						<polygon fill="#8F8F8F" points="853.8648071,239.3370056 921.8520508,270.1477966 853.8817139,294.9630432 						"/>
						<polygon fill="#B9B9B9" points="930.8839722,311.2531738 921.8520508,270.1477966 853.8817139,294.9630432 						"/>
						<polygon fill="#E1E1E1" points="853.8919067,328.6451111 930.8839722,311.2531738 853.8817139,294.9630432 						"/>
						<polygon fill="#575757" points="993.3503418,346.2213745 853.8919067,328.6451111 853.8972778,346.333252 						"/>
						<polygon fill="#888888" points="930.8839722,311.2531738 993.3503418,346.2213745 853.8919067,328.6451111 						"/>
						<polygon fill="#A8A8A8" points="921.8520508,270.1477966 975.6889038,239.2392731 853.8648071,239.3370056 						"/>
						<polygon fill="#484848" points="930.8839722,311.2531738 1002.5621338,294.8437805 921.8520508,270.1477966 						"/>
						<polygon fill="#666666" points="1002.5621338,294.8437805 930.8839722,311.2531738 993.3503418,346.2213745 						"/>
						<polygon fill="#E1E1E1" points="1078.6079102,281.809906 993.3503418,346.2213745 1002.5621338,294.8437805 						"/>
						<polygon fill="#575757" points="1047.3195801,239.1818237 1002.5621338,294.8437805 975.6889038,239.2392731 						"/>
						<polygon fill="#1F1F1F" points="921.8520508,270.1477966 1002.5621338,294.8437805 975.6889038,239.2392731 						"/>
						<polygon fill="#B9B9B9" points="993.3503418,346.2213745 1078.6079102,281.809906 1053.6831055,337.3289185 						"/>
						<polygon fill="#888888" points="1047.3195801,239.1818237 1078.6079102,281.809906 1002.5621338,294.8437805 						"/>
					</g>
					<g>
						<polygon fill="#575757" points="853.8648071,239.3370056 785.8963013,270.2568665 853.8817139,294.9630432 						"/>
						<polygon fill="#666666" points="776.8894043,311.376709 785.8963013,270.2568665 853.8817139,294.9630432 						"/>
						<polygon fill="#484848" points="853.8919067,328.6451111 776.8894043,311.376709 853.8817139,294.9630432 						"/>
						<polygon fill="#A8A8A8" points="697.4953613,346.4586792 853.8919067,328.6451111 853.8972778,346.333252 						"/>
						<polygon fill="#1F1F1F" points="776.8894043,311.376709 697.4953613,346.4586792 853.8919067,328.6451111 						"/>
						<polygon fill="#888888" points="785.8963013,270.2568665 732.0407104,239.4347229 853.8648071,239.3370056 						"/>
						<polygon fill="#B9B9B9" points="776.8894043,311.376709 705.2012329,295.0823059 785.8963013,270.2568665 						"/>
						<polygon fill="#8F8F8F" points="705.2012329,295.0823059 776.8894043,311.376709 697.4953613,346.4586792 						"/>
						<polygon fill="#484848" points="629.420166,294.1805115 697.4953613,346.4586792 705.2012329,295.0823059 						"/>
						<polygon fill="#A8A8A8" points="662.8873291,246.9869843 705.2012329,295.0823059 732.0407104,239.4347229 						"/>
						<polygon fill="#E1E1E1" points="785.8963013,270.2568665 705.2012329,295.0823059 732.0407104,239.4347229 						"/>
						<polygon fill="#666666" points="697.4953613,346.4586792 629.420166,294.1805115 651.2537231,333.4086609 						"/>
						<polygon fill="#1F1F1F" points="662.8873291,246.9869843 629.420166,294.1805115 705.2012329,295.0823059 						"/>
					</g>
					<g>
						<polygon fill="#8F8F8F" points="432.4005127,239.6750641 499.3899231,270.4866638 444.0244751,281.5526123 						"/>
						<polygon fill="#B9B9B9" points="508.4217834,311.592041 499.3899231,270.4866638 444.0244751,281.5526123 						"/>
						<polygon fill="#E1E1E1" points="423.9415588,315.4053345 508.4217834,311.592041 444.0244751,281.5526123 						"/>
						<polygon fill="#575757" points="539.7629395,342.1631775 423.9415588,315.4053345 435.9953918,342.2464294 						"/>
						<polygon fill="#888888" points="508.4217834,311.592041 539.7629395,342.1631775 423.9415588,315.4053345 						"/>
						<polygon fill="#A8A8A8" points="499.3899231,270.4866638 553.2267456,239.5781555 432.4005127,239.6750641 						"/>
						<polygon fill="#484848" points="508.4217834,311.592041 580.0999756,295.1826782 499.3899231,270.4866638 						"/>
						<polygon fill="#666666" points="580.0999756,295.1826782 508.4217834,311.592041 539.7629395,342.1631775 						"/>
						<polygon fill="#E1E1E1" points="629.420166,294.1805115 539.7629395,342.1631775 580.0999756,295.1826782 						"/>
						<polygon fill="#575757" points="662.8873291,246.9869843 580.0999756,295.1826782 553.2267456,239.5781555 						"/>
						<polygon fill="#1F1F1F" points="499.3899231,270.4866638 580.0999756,295.1826782 553.2267456,239.5781555 						"/>
						<polygon fill="#B9B9B9" points="539.7629395,342.1631775 629.420166,294.1805115 651.2537231,333.4086609 						"/>
						<polygon fill="#888888" points="662.8873291,246.9869843 629.420166,294.1805115 580.0999756,295.1826782 						"/>
					</g>
					<g>
						<polygon fill="#575757" points="432.4005127,239.6750641 365.4298706,270.5941162 444.0244751,281.5526123 						"/>
						<polygon fill="#666666" points="356.4230042,311.7139893 365.4298706,270.5941162 444.0244751,281.5526123 						"/>
						<polygon fill="#484848" points="423.9415588,315.4053345 356.4230042,311.7139893 444.0244751,281.5526123 						"/>
						<polygon fill="#A8A8A8" points="293.9778442,346.7823792 423.9415588,315.4053345 435.9953918,342.2464294 						"/>
						<polygon fill="#1F1F1F" points="356.4230042,311.7139893 293.9778442,346.7823792 423.9415588,315.4053345 						"/>
						<polygon fill="#888888" points="365.4298706,270.5941162 311.5742798,239.7719879 432.4005127,239.6750641 						"/>
						<polygon fill="#B9B9B9" points="356.4230042,311.7139893 284.7348633,295.4195862 365.4298706,270.5941162 						"/>
						<polygon fill="#8F8F8F" points="284.7348633,295.4195862 356.4230042,311.7139893 293.9778442,346.7823792 						"/>
						<polygon fill="#484848" points="222.1839294,294.5071716 293.9778442,346.7823792 284.7348633,295.4195862 						"/>
						<polygon fill="#A8A8A8" points="222.1673279,239.8437042 284.7348633,295.4195862 311.5742798,239.7719879 						"/>
						<polygon fill="#E1E1E1" points="365.4298706,270.5941162 284.7348633,295.4195862 311.5742798,239.7719879 						"/>
						<polygon fill="#666666" points="293.9778442,346.7823792 222.1839294,294.5071716 230.5090637,337.9892273 						"/>
						<polygon fill="#1F1F1F" points="222.1673279,239.8437042 222.1839294,294.5071716 284.7348633,295.4195862 						"/>
					</g>
					<g>
						<polygon fill="#8F8F8F" points="0,240.0131378 78.9235229,270.8239441 0,295.6391907 						"/>
						<polygon fill="#B9B9B9" points="87.9553833,311.9293213 78.9235229,270.8239441 0,295.6391907 						"/>
						<polygon fill="#E1E1E1" points="0,329.3212585 87.9553833,311.9293213 0,295.6391907 						"/>
						<polygon fill="#575757" points="144.7775879,355.7461243 0,329.3212585 0,347.0093994 						"/>
						<polygon fill="#888888" points="87.9553833,311.9293213 144.7775879,355.7461243 0,329.3212585 						"/>
						<polygon fill="#A8A8A8" points="78.9235229,270.8239441 132.7603607,239.9154205 0,240.0131378 						"/>
						<polygon fill="#484848" points="87.9553833,311.9293213 159.6335907,295.519928 78.9235229,270.8239441 						"/>
						<polygon fill="#666666" points="159.6335907,295.519928 87.9553833,311.9293213 144.7775879,355.7461243 						"/>
						<polygon fill="#E1E1E1" points="222.1839294,294.5071716 144.7775879,355.7461243 159.6335907,295.519928 						"/>
						<polygon fill="#575757" points="222.1673126,239.8437042 159.6335907,295.519928 132.7603607,239.9154205 						"/>
						<polygon fill="#1F1F1F" points="78.9235229,270.8239441 159.6335907,295.519928 132.7603607,239.9154205 						"/>
						<polygon fill="#B9B9B9" points="144.7775879,355.7461243 222.1839294,294.5071716 230.5090485,337.9892273 						"/>
						<polygon fill="#888888" points="222.1673126,239.8437042 222.1839294,294.5071716 159.6335907,295.519928 						"/>
					</g>
				</g>
				<g>
					<g>
						<polygon fill="#575757" points="1280,452.9906006 1208.4046631,422.1798096 1280,397.364563 						"/>
						<polygon fill="#666666" points="1199.3728027,381.0744324 1208.4046631,422.1798096 1280,397.364563 						"/>
						<polygon fill="#484848" points="1280,363.6824951 1199.3728027,381.0744324 1280,397.364563 						"/>
						<polygon fill="#A8A8A8" points="1136.9063721,346.1062317 1280,363.6824951 1280,345.9943542 						"/>
						<polygon fill="#1F1F1F" points="1199.3728027,381.0744324 1136.9063721,346.1062317 1280,363.6824951 						"/>
						<polygon fill="#888888" points="1208.4046631,422.1798096 1127.7084961,443.2190247 1280,452.9906006 						"/>
						<polygon fill="#B9B9B9" points="1199.3728027,381.0744324 1127.6945801,397.4838257 1208.4046631,422.1798096 						"/>
						<polygon fill="#8F8F8F" points="1127.6945801,397.4838257 1199.3728027,381.0744324 1136.9063721,346.1062317 						"/>
						<polygon fill="#484848" points="1061.5968018,398.4994202 1136.9063721,346.1062317 1127.6945801,397.4838257 						"/>
						<polygon fill="#A8A8A8" points="1040.6380615,462.8968201 1127.6945801,397.4838257 1127.7084961,443.2190247 						"/>
						<polygon fill="#E1E1E1" points="1208.4046631,422.1798096 1127.6945801,397.4838257 1127.7084961,443.2190247 						"/>
						<polygon fill="#666666" points="1136.9063721,346.1062317 1061.5968018,398.4994202 1053.6831055,337.3289185 						"/>
						<polygon fill="#1F1F1F" points="1040.6380615,462.8968201 1061.5968018,398.4994202 1127.6945801,397.4838257 						"/>
					</g>
					<g>
						<polygon fill="#8F8F8F" points="853.9298096,453.3294983 921.8983154,422.4096375 853.9129028,397.7034302 						"/>
						<polygon fill="#B9B9B9" points="930.9052124,381.2897644 921.8983154,422.4096375 853.9129028,397.7034302 						"/>
						<polygon fill="#E1E1E1" points="853.90271,364.0213623 930.9052124,381.2897644 853.9129028,397.7034302 						"/>
						<polygon fill="#575757" points="993.3503418,346.2213745 853.90271,364.0213623 853.8972778,346.333252 						"/>
						<polygon fill="#888888" points="930.9052124,381.2897644 993.3503418,346.2213745 853.90271,364.0213623 						"/>
						<polygon fill="#A8A8A8" points="921.8983154,422.4096375 975.7539062,453.231781 853.9298096,453.3294983 						"/>
						<polygon fill="#484848" points="930.9052124,381.2897644 1002.5933228,397.5841675 921.8983154,422.4096375 						"/>
						<polygon fill="#666666" points="1002.5933228,397.5841675 930.9052124,381.2897644 993.3503418,346.2213745 						"/>
						<polygon fill="#E1E1E1" points="1061.5968018,398.4994202 993.3503418,346.2213745 1002.5933228,397.5841675 						"/>
						<polygon fill="#575757" points="1040.6380615,462.8968201 1002.5933228,397.5841675 975.7539062,453.231781 						"/>
						<polygon fill="#1F1F1F" points="921.8983154,422.4096375 1002.5933228,397.5841675 975.7539062,453.231781 						"/>
						<polygon fill="#B9B9B9" points="993.3503418,346.2213745 1061.5968018,398.4994202 1053.6831055,337.3289185 						"/>
						<polygon fill="#888888" points="1040.6380615,462.8968201 1061.5968018,398.4994202 1002.5933228,397.5841675 						"/>
					</g>
					<g>
						<polygon fill="#575757" points="853.9298096,453.3294983 785.9425049,422.5186768 853.9129028,397.7034302 						"/>
						<polygon fill="#666666" points="776.9106445,381.4132996 785.9425049,422.5186768 853.9129028,397.7034302 						"/>
						<polygon fill="#484848" points="853.9026489,364.0213623 776.9106445,381.4132996 853.9129028,397.7034302 						"/>
						<polygon fill="#A8A8A8" points="697.4953613,346.4587097 853.9026489,364.0213623 853.8972778,346.333252 						"/>
						<polygon fill="#1F1F1F" points="776.9106445,381.4132996 697.4953613,346.4587097 853.9026489,364.0213623 						"/>
						<polygon fill="#888888" points="785.9425049,422.5186768 732.1057129,453.4272156 853.9298096,453.3294983 						"/>
						<polygon fill="#B9B9B9" points="776.9106445,381.4132996 705.2324829,397.8226929 785.9425049,422.5186768 						"/>
						<polygon fill="#8F8F8F" points="705.2324829,397.8226929 776.9106445,381.4132996 697.4953613,346.4587097 						"/>
						<polygon fill="#484848" points="642.6821289,398.8354492 697.4953613,346.4587097 705.2324829,397.8226929 						"/>
						<polygon fill="#A8A8A8" points="642.6987305,453.4989319 705.2324829,397.8226929 732.1057129,453.4272156 						"/>
						<polygon fill="#E1E1E1" points="785.9425049,422.5186768 705.2324829,397.8226929 732.1057129,453.4272156 						"/>
						<polygon fill="#666666" points="697.4953613,346.4587097 642.6821289,398.8354492 651.2537231,333.4086609 						"/>
						<polygon fill="#1F1F1F" points="642.6987305,453.4989319 642.6821289,398.8354492 705.2324829,397.8226929 						"/>
					</g>
					<g>
						<polygon fill="#8F8F8F" points="432.4655151,453.667572 499.4361572,422.7485046 432.4486389,398.0415039 						"/>
						<polygon fill="#B9B9B9" points="508.4430542,381.6286621 499.4361572,422.7485046 432.4486389,398.0415039 						"/>
						<polygon fill="#E1E1E1" points="432.438385,364.359436 508.4430542,381.6286621 432.4486389,398.0415039 						"/>
						<polygon fill="#575757" points="539.7629395,342.1631775 432.438385,364.359436 435.9953918,342.2464294 						"/>
						<polygon fill="#888888" points="508.4430542,381.6286621 539.7629395,342.1631775 432.438385,364.359436 						"/>
						<polygon fill="#A8A8A8" points="499.4361572,422.7485046 553.291748,453.5706482 432.4655151,453.667572 						"/>
						<polygon fill="#484848" points="508.4430542,381.6286621 580.1311646,397.9230347 499.4361572,422.7485046 						"/>
						<polygon fill="#666666" points="580.1311646,397.9230347 508.4430542,381.6286621 539.7629395,342.1631775 						"/>
						<polygon fill="#E1E1E1" points="642.6821289,398.8354492 539.7629395,342.1631775 580.1311646,397.9230347 						"/>
						<polygon fill="#575757" points="642.6987305,453.4989319 580.1311646,397.9230347 553.291748,453.5706482 						"/>
						<polygon fill="#1F1F1F" points="499.4361572,422.7485046 580.1311646,397.9230347 553.291748,453.5706482 						"/>
						<polygon fill="#B9B9B9" points="539.7629395,342.1631775 642.6821289,398.8354492 651.2537231,333.4086609 						"/>
						<polygon fill="#888888" points="642.6987305,453.4989319 642.6821289,398.8354492 580.1311646,397.9230347 						"/>
					</g>
					<g>
						<polygon fill="#575757" points="432.4655151,453.667572 365.4761353,422.855957 432.4486389,398.0415039 						"/>
						<polygon fill="#666666" points="356.4442749,381.7505798 365.4761353,422.855957 432.4486389,398.0415039 						"/>
						<polygon fill="#484848" points="432.438385,364.359436 356.4442749,381.7505798 432.4486389,398.0415039 						"/>
						<polygon fill="#A8A8A8" points="293.9778442,346.7823792 432.438385,364.359436 435.9953918,342.2464294 						"/>
						<polygon fill="#1F1F1F" points="356.4442749,381.7505798 293.9778442,346.7823792 432.438385,364.359436 						"/>
						<polygon fill="#888888" points="365.4761353,422.855957 311.6392822,453.7644653 432.4655151,453.667572 						"/>
						<polygon fill="#B9B9B9" points="356.4442749,381.7505798 284.7660828,398.1599731 365.4761353,422.855957 						"/>
						<polygon fill="#8F8F8F" points="284.7660828,398.1599731 356.4442749,381.7505798 293.9778442,346.7823792 						"/>
						<polygon fill="#484848" points="212.8134155,399.1802673 293.9778442,346.7823792 284.7660828,398.1599731 						"/>
						<polygon fill="#A8A8A8" points="222.2323303,453.8361816 284.7660828,398.1599731 311.6392822,453.7644653 						"/>
						<polygon fill="#E1E1E1" points="365.4761353,422.855957 284.7660828,398.1599731 311.6392822,453.7644653 						"/>
						<polygon fill="#666666" points="293.9778442,346.7823792 212.8134155,399.1802673 230.5090637,337.9892273 						"/>
						<polygon fill="#1F1F1F" points="222.2323303,453.8361816 212.8134155,399.1802673 284.7660828,398.1599731 						"/>
					</g>
					<g>
						<polygon fill="#8F8F8F" points="0,454.0056458 78.9697723,423.0857849 0,398.3795776 						"/>
						<polygon fill="#B9B9B9" points="87.9766617,381.9659119 78.9697723,423.0857849 0,398.3795776 						"/>
						<polygon fill="#E1E1E1" points="0,364.6975098 87.9766617,381.9659119 0,398.3795776 						"/>
						<polygon fill="#575757" points="144.7775879,355.7461243 0,364.6975098 0,347.0093994 						"/>
						<polygon fill="#888888" points="87.9766617,381.9659119 144.7775879,355.7461243 0,364.6975098 						"/>
						<polygon fill="#A8A8A8" points="78.9697723,423.0857849 132.8253632,453.9078979 0,454.0056458 						"/>
						<polygon fill="#484848" points="87.9766617,381.9659119 159.6647949,398.2603149 78.9697723,423.0857849 						"/>
						<polygon fill="#666666" points="159.6647949,398.2603149 87.9766617,381.9659119 144.7775879,355.7461243 						"/>
						<polygon fill="#E1E1E1" points="212.8134155,399.1802673 144.7775879,355.7461243 159.6647949,398.2603149 						"/>
						<polygon fill="#575757" points="222.2323303,453.8361816 159.6647949,398.2603149 132.8253632,453.9078979 						"/>
						<polygon fill="#1F1F1F" points="78.9697723,423.0857849 159.6647949,398.2603149 132.8253632,453.9078979 						"/>
						<polygon fill="#B9B9B9" points="144.7775879,355.7461243 212.8134155,399.1802673 230.5090485,337.9892273 						"/>
						<polygon fill="#888888" points="222.2323303,453.8361816 212.8134155,399.1802673 159.6647949,398.2603149 						"/>
					</g>
				</g>
				<g>
					<g>
						<polygon fill="#575757" points="1280,452.9906006 1208.4234619,483.9104614 1280,508.6166687 						"/>
						<polygon fill="#666666" points="1199.4165039,525.0303345 1208.4234619,483.9104614 1280,508.6166687 						"/>
						<polygon fill="#484848" points="1280,542.2987061 1199.4165039,525.0303345 1280,508.6166687 						"/>
						<polygon fill="#A8A8A8" points="1136.9714355,560.0986938 1280,542.2987061 1280,559.9868774 						"/>
						<polygon fill="#1F1F1F" points="1199.4165039,525.0303345 1136.9714355,560.0986938 1280,542.2987061 						"/>
						<polygon fill="#888888" points="1208.4234619,483.9104614 1127.7084961,443.2190247 1280,452.9906006 						"/>
						<polygon fill="#B9B9B9" points="1199.4165039,525.0303345 1127.7283936,508.7359314 1208.4234619,483.9104614 						"/>
						<polygon fill="#8F8F8F" points="1127.7283936,508.7359314 1199.4165039,525.0303345 1136.9714355,560.0986938 						"/>
						<polygon fill="#484848" points="1053.7348633,507.8327026 1136.9714355,560.0986938 1127.7283936,508.7359314 						"/>
						<polygon fill="#A8A8A8" points="1040.6380615,462.8968201 1127.7283936,508.7359314 1127.7084961,443.2190247 						"/>
						<polygon fill="#E1E1E1" points="1208.4234619,483.9104614 1127.7283936,508.7359314 1127.7084961,443.2190247 						"/>
						<polygon fill="#666666" points="1136.9714355,560.0986938 1053.7348633,507.8327026 1078.6940918,565.5809937 						"/>
						<polygon fill="#1F1F1F" points="1040.6380615,462.8968201 1053.7348633,507.8327026 1127.7283936,508.7359314 						"/>
					</g>
					<g>
						<polygon fill="#8F8F8F" points="853.9298096,453.3294983 921.9170532,484.1402893 853.9467163,508.9555359 						"/>
						<polygon fill="#B9B9B9" points="930.9489746,525.2456665 921.9170532,484.1402893 853.9467163,508.9555359 						"/>
						<polygon fill="#E1E1E1" points="853.9569702,542.6376343 930.9489746,525.2456665 853.9467163,508.9555359 						"/>
						<polygon fill="#575757" points="993.4153442,560.2138672 853.9569702,542.6376343 853.9622803,560.3257446 						"/>
						<polygon fill="#888888" points="930.9489746,525.2456665 993.4153442,560.2138672 853.9569702,542.6376343 						"/>
						<polygon fill="#A8A8A8" points="921.9170532,484.1402893 975.7539062,453.231781 853.9298096,453.3294983 						"/>
						<polygon fill="#484848" points="930.9489746,525.2456665 1002.6271362,508.8362732 921.9170532,484.1402893 						"/>
						<polygon fill="#666666" points="1002.6271362,508.8362732 930.9489746,525.2456665 993.4153442,560.2138672 						"/>
						<polygon fill="#E1E1E1" points="1053.7348633,507.8327026 993.4153442,560.2138672 1002.6271362,508.8362732 						"/>
						<polygon fill="#575757" points="1040.6380615,462.8968201 1002.6271362,508.8362732 975.7539062,453.231781 						"/>
						<polygon fill="#1F1F1F" points="921.9170532,484.1402893 1002.6271362,508.8362732 975.7539062,453.231781 						"/>
						<polygon fill="#B9B9B9" points="993.4153442,560.2138672 1053.7348633,507.8327026 1078.6940918,565.5809937 						"/>
						<polygon fill="#888888" points="1040.6380615,462.8968201 1053.7348633,507.8327026 1002.6271362,508.8362732 						"/>
					</g>
					<g>
						<polygon fill="#575757" points="853.9298096,453.3294983 785.9613037,484.2493591 853.9467163,508.9555359 						"/>
						<polygon fill="#666666" points="776.9544067,525.3692017 785.9613037,484.2493591 853.9467163,508.9555359 						"/>
						<polygon fill="#484848" points="853.9569092,542.6376343 776.9544067,525.3692017 853.9467163,508.9555359 						"/>
						<polygon fill="#A8A8A8" points="714.5092773,560.437561 853.9569092,542.6376343 853.9622803,560.3257446 						"/>
						<polygon fill="#1F1F1F" points="776.9544067,525.3692017 714.5092773,560.437561 853.9569092,542.6376343 						"/>
						<polygon fill="#888888" points="785.9613037,484.2493591 732.1057129,453.4272156 853.9298096,453.3294983 						"/>
						<polygon fill="#B9B9B9" points="776.9544067,525.3692017 705.2662354,509.0747986 785.9613037,484.2493591 						"/>
						<polygon fill="#8F8F8F" points="705.2662354,509.0747986 776.9544067,525.3692017 714.5092773,560.437561 						"/>
						<polygon fill="#484848" points="642.715332,508.162384 714.5092773,560.437561 705.2662354,509.0747986 						"/>
						<polygon fill="#A8A8A8" points="642.6987305,453.4989319 705.2662354,509.0747986 732.1057129,453.4272156 						"/>
						<polygon fill="#E1E1E1" points="785.9613037,484.2493591 705.2662354,509.0747986 732.1057129,453.4272156 						"/>
						<polygon fill="#666666" points="714.5092773,560.437561 642.715332,508.162384 611.4532471,551.6762085 						"/>
						<polygon fill="#1F1F1F" points="642.6987305,453.4989319 642.715332,508.162384 705.2662354,509.0747986 						"/>
					</g>
					<g>
						<polygon fill="#8F8F8F" points="432.4655151,453.667572 499.4549255,484.4791565 432.4786072,496.7816467 						"/>
						<polygon fill="#B9B9B9" points="508.4867859,525.5845337 499.4549255,484.4791565 432.4786072,496.7816467 						"/>
						<polygon fill="#E1E1E1" points="432.4885559,529.5082397 508.4867859,525.5845337 432.4786072,496.7816467 						"/>
						<polygon fill="#575757" points="526.7585449,560.5881958 432.4885559,529.5082397 440.8516235,551.8130493 						"/>
						<polygon fill="#888888" points="508.4867859,525.5845337 526.7585449,560.5881958 432.4885559,529.5082397 						"/>
						<polygon fill="#A8A8A8" points="499.4549255,484.4791565 553.291748,453.5706482 432.4655151,453.667572 						"/>
						<polygon fill="#484848" points="508.4867859,525.5845337 580.164978,509.1751404 499.4549255,484.4791565 						"/>
						<polygon fill="#666666" points="580.164978,509.1751404 508.4867859,525.5845337 526.7585449,560.5881958 						"/>
						<polygon fill="#E1E1E1" points="642.715332,508.162384 526.7585449,560.5881958 580.164978,509.1751404 						"/>
						<polygon fill="#575757" points="642.6987305,453.4989319 580.164978,509.1751404 553.291748,453.5706482 						"/>
						<polygon fill="#1F1F1F" points="499.4549255,484.4791565 580.164978,509.1751404 553.291748,453.5706482 						"/>
						<polygon fill="#B9B9B9" points="526.7585449,560.5881958 642.715332,508.162384 611.453186,551.6762085 						"/>
						<polygon fill="#888888" points="642.6987305,453.4989319 642.715332,508.162384 580.164978,509.1751404 						"/>
					</g>
					<g>
						<polygon fill="#575757" points="432.4655151,453.667572 365.494873,484.5866089 432.4786072,496.7816467 						"/>
						<polygon fill="#666666" points="356.4880066,525.7064819 365.494873,484.5866089 432.4786072,496.7816467 						"/>
						<polygon fill="#484848" points="432.4885559,529.5082397 356.4880066,525.7064819 432.4786072,496.7816467 						"/>
						<polygon fill="#A8A8A8" points="338.2792053,560.7393799 432.4885559,529.5082397 440.8516235,551.8130493 						"/>
						<polygon fill="#1F1F1F" points="356.4880066,525.7064819 338.2792053,560.7393799 432.4885559,529.5082397 						"/>
						<polygon fill="#888888" points="365.494873,484.5866089 311.6392822,453.7644653 432.4655151,453.667572 						"/>
						<polygon fill="#B9B9B9" points="356.4880066,525.7064819 317.0072937,511.8508606 365.494873,484.5866089 						"/>
						<polygon fill="#8F8F8F" points="317.0072937,511.8508606 356.4880066,525.7064819 338.2792053,560.7393799 						"/>
						<polygon fill="#484848" points="222.2489319,508.4996643 338.2792053,560.7393799 317.0072937,511.8508606 						"/>
						<polygon fill="#A8A8A8" points="222.2323303,453.8361816 317.0072937,511.8508606 311.6392822,453.7644653 						"/>
						<polygon fill="#E1E1E1" points="365.494873,484.5866089 317.0072937,511.8508606 311.6392822,453.7644653 						"/>
						<polygon fill="#666666" points="338.2792053,560.7393799 222.2489319,508.4996643 242.6207123,555.1762085 						"/>
						<polygon fill="#1F1F1F" points="222.2323303,453.8361816 222.2489319,508.4996643 317.0072937,511.8508606 						"/>
					</g>
					<g>
						<polygon fill="#8F8F8F" points="0,454.0056458 78.9885254,484.8164368 0,509.6316833 						"/>
						<polygon fill="#B9B9B9" points="88.0203934,525.921814 78.9885254,484.8164368 0,509.6316833 						"/>
						<polygon fill="#E1E1E1" points="0,543.3137817 88.0203934,525.921814 0,509.6316833 						"/>
						<polygon fill="#575757" points="150.4868011,560.8900146 0,543.3137817 0,561.0018921 						"/>
						<polygon fill="#888888" points="88.0203934,525.921814 150.4868011,560.8900146 0,543.3137817 						"/>
						<polygon fill="#A8A8A8" points="78.9885254,484.8164368 132.8253632,453.9078979 0,454.0056458 						"/>
						<polygon fill="#484848" points="88.0203934,525.921814 159.6985931,509.5124207 78.9885254,484.8164368 						"/>
						<polygon fill="#666666" points="159.6985931,509.5124207 88.0203934,525.921814 150.4868011,560.8900146 						"/>
						<polygon fill="#E1E1E1" points="222.2489319,508.4996643 150.4868011,560.8900146 159.6985931,509.5124207 						"/>
						<polygon fill="#575757" points="222.2323303,453.8361816 159.6985931,509.5124207 132.8253632,453.9078979 						"/>
						<polygon fill="#1F1F1F" points="78.9885254,484.8164368 159.6985931,509.5124207 132.8253632,453.9078979 						"/>
						<polygon fill="#B9B9B9" points="150.4868011,560.8900146 222.2489319,508.4996643 242.620697,555.1762085 						"/>
						<polygon fill="#888888" points="222.2323303,453.8361816 222.2489319,508.4996643 159.6985931,509.5124207 						"/>
					</g>
				</g>
				<g>
					<g>
						<polygon fill="#575757" points="1280,666.9830933 1208.4697266,636.1723022 1280,611.3570557 						"/>
						<polygon fill="#666666" points="1199.4378662,595.0668945 1208.4697266,636.1723022 1280,611.3570557 						"/>
						<polygon fill="#484848" points="1280,577.6749878 1199.4378662,595.0668945 1280,611.3570557 						"/>
						<polygon fill="#A8A8A8" points="1136.9714355,560.0986938 1280,577.6749878 1280,559.9868774 						"/>
						<polygon fill="#1F1F1F" points="1199.4378662,595.0668945 1136.9714355,560.0986938 1280,577.6749878 						"/>
						<polygon fill="#888888" points="1208.4697266,636.1723022 1154.130249,655.1765137 1280,666.9830933 						"/>
						<polygon fill="#B9B9B9" points="1199.4378662,595.0668945 1119.9294434,629.0842896 1208.4697266,636.1723022 						"/>
						<polygon fill="#8F8F8F" points="1119.9294434,629.0842896 1199.4378662,595.0668945 1136.9714355,560.0986938 						"/>
						<polygon fill="#484848" points="1065.2093506,612.4890747 1136.9714355,560.0986938 1119.9294434,629.0842896 						"/>
						<polygon fill="#A8A8A8" points="1053.7856445,674.7820435 1119.9294434,629.0842896 1154.130249,655.1765137 						"/>
						<polygon fill="#E1E1E1" points="1208.4697266,636.1723022 1119.9294434,629.0842896 1154.130249,655.1765137 						"/>
						<polygon fill="#666666" points="1136.9714355,560.0986938 1065.2093506,612.4890747 1078.6940918,565.5809937 						"/>
						<polygon fill="#1F1F1F" points="1053.7856445,674.7820435 1065.2093506,612.4890747 1119.9294434,629.0842896 						"/>
					</g>
					<g>
						<polygon fill="#8F8F8F" points="841.9199829,682.7643433 921.9633179,636.4020996 853.9779053,611.6959229 						"/>
						<polygon fill="#B9B9B9" points="930.9702148,595.2822876 921.9633179,636.4020996 853.9779053,611.6959229 						"/>
						<polygon fill="#E1E1E1" points="853.9677124,578.013855 930.9702148,595.2822876 853.9779053,611.6959229 						"/>
						<polygon fill="#575757" points="993.4153442,560.2138672 853.9677124,578.013855 853.9622803,560.3257446 						"/>
						<polygon fill="#888888" points="930.9702148,595.2822876 993.4153442,560.2138672 853.9677124,578.013855 						"/>
						<polygon fill="#A8A8A8" points="921.9633179,636.4020996 966.8307495,657.6934204 841.9199829,682.7643433 						"/>
						<polygon fill="#484848" points="930.9702148,595.2822876 1002.6583862,611.5766602 921.9633179,636.4020996 						"/>
						<polygon fill="#666666" points="1002.6583862,611.5766602 930.9702148,595.2822876 993.4153442,560.2138672 						"/>
						<polygon fill="#E1E1E1" points="1065.2092285,612.4890747 993.4153442,560.2138672 1002.6583862,611.5766602 						"/>
						<polygon fill="#575757" points="1053.7856445,674.7820435 1002.6583862,611.5766602 966.8307495,657.6934204 						"/>
						<polygon fill="#1F1F1F" points="921.9633179,636.4020996 1002.6583862,611.5766602 966.8307495,657.6934204 						"/>
						<polygon fill="#B9B9B9" points="993.4153442,560.2138672 1065.2092285,612.4890747 1078.6940918,565.5809937 						"/>
						<polygon fill="#888888" points="1053.7856445,674.7820435 1065.2092285,612.4890747 1002.6583862,611.5766602 						"/>
					</g>
					<g>
						<polygon fill="#575757" points="841.9199829,682.7643433 786.0075073,636.5111694 853.9779053,611.6959229 						"/>
						<polygon fill="#666666" points="776.975647,595.4057617 786.0075073,636.5111694 853.9779053,611.6959229 						"/>
						<polygon fill="#484848" points="853.9676514,578.013855 776.975647,595.4057617 853.9779053,611.6959229 						"/>
						<polygon fill="#A8A8A8" points="714.5092773,560.4376221 853.9676514,578.013855 853.9622803,560.3257446 						"/>
						<polygon fill="#1F1F1F" points="776.975647,595.4057617 714.5092773,560.4376221 853.9676514,578.013855 						"/>
						<polygon fill="#888888" points="786.0075073,636.5111694 732.1707153,667.4196777 841.9199829,682.7643433 						"/>
						<polygon fill="#B9B9B9" points="776.975647,595.4057617 705.2974854,611.8151855 786.0075073,636.5111694 						"/>
						<polygon fill="#8F8F8F" points="705.2974854,611.8151855 776.975647,595.4057617 714.5092773,560.4376221 						"/>
						<polygon fill="#484848" points="642.7471313,612.8279419 714.5092773,560.4376221 705.2974854,611.8151855 						"/>
						<polygon fill="#A8A8A8" points="624.2443237,672.1682129 705.2974854,611.8151855 732.1707153,667.4196777 						"/>
						<polygon fill="#E1E1E1" points="786.0075073,636.5111694 705.2974854,611.8151855 732.1707153,667.4196777 						"/>
						<polygon fill="#666666" points="714.5092773,560.4376221 642.7471313,612.8279419 611.4532471,551.6762085 						"/>
						<polygon fill="#1F1F1F" points="624.2443237,672.1682129 642.7471313,612.8279419 705.2974854,611.8151855 						"/>
					</g>
					<g>
						<polygon fill="#8F8F8F" points="432.0315857,667.6604614 499.5011597,636.7409668 444.58255,619.9127808 						"/>
						<polygon fill="#B9B9B9" points="508.5080566,595.6211548 499.5011597,636.7409668 444.58255,619.9127808 						"/>
						<polygon fill="#E1E1E1" points="440.8622742,586.8234863 508.5080566,595.6211548 444.58255,619.9127808 						"/>
						<polygon fill="#575757" points="526.7585449,560.5881958 440.8622742,586.8234863 440.8516235,551.8130493 						"/>
						<polygon fill="#888888" points="508.5080566,595.6211548 526.7585449,560.5881958 440.8622742,586.8234863 						"/>
						<polygon fill="#A8A8A8" points="499.5011597,636.7409668 553.3567505,667.5631104 432.0315857,667.6604614 						"/>
						<polygon fill="#484848" points="508.5080566,595.6211548 580.196167,611.9155273 499.5011597,636.7409668 						"/>
						<polygon fill="#666666" points="580.196167,611.9155273 508.5080566,595.6211548 526.7585449,560.5881958 						"/>
						<polygon fill="#E1E1E1" points="642.7471313,612.8279419 526.7585449,560.5881958 580.196167,611.9155273 						"/>
						<polygon fill="#575757" points="624.2443237,672.1682129 580.196167,611.9155273 553.3567505,667.5631104 						"/>
						<polygon fill="#1F1F1F" points="499.5011597,636.7409668 580.196167,611.9155273 553.3567505,667.5631104 						"/>
						<polygon fill="#B9B9B9" points="526.7585449,560.5881958 642.7471313,612.8279419 611.453186,551.6762085 						"/>
						<polygon fill="#888888" points="624.2443237,672.1682129 642.7471313,612.8279419 580.196167,611.9155273 						"/>
					</g>
					<g>
						<polygon fill="#575757" points="432.0315857,667.6604614 365.5411377,636.8484497 444.58255,619.9127808 						"/>
						<polygon fill="#666666" points="356.5092773,595.743042 365.5411377,636.8484497 444.58255,619.9127808 						"/>
						<polygon fill="#484848" points="440.8622742,586.8234863 356.5092773,595.743042 444.58255,619.9127808 						"/>
						<polygon fill="#A8A8A8" points="338.2792053,560.7393799 440.8622742,586.8234863 440.8516235,551.8130493 						"/>
						<polygon fill="#1F1F1F" points="356.5092773,595.743042 338.2792053,560.7393799 440.8622742,586.8234863 						"/>
						<polygon fill="#888888" points="365.5411377,636.8484497 311.7042847,667.756958 432.0315857,667.6604614 						"/>
						<polygon fill="#B9B9B9" points="356.5092773,595.743042 284.8310852,612.1524658 365.5411377,636.8484497 						"/>
						<polygon fill="#8F8F8F" points="284.8310852,612.1524658 356.5092773,595.743042 338.2792053,560.7393799 						"/>
						<polygon fill="#484848" points="221.7775726,599.3062134 338.2792053,560.7393799 284.8310852,612.1524658 						"/>
						<polygon fill="#A8A8A8" points="221.7984009,667.8291016 284.8310852,612.1524658 311.7042847,667.756958 						"/>
						<polygon fill="#E1E1E1" points="365.5411377,636.8484497 284.8310852,612.1524658 311.7042847,667.756958 						"/>
						<polygon fill="#666666" points="338.2792053,560.7393799 221.7775726,599.3062134 242.6207123,555.1762085 						"/>
						<polygon fill="#1F1F1F" points="221.7984009,667.8291016 221.7775726,599.3062134 284.8310852,612.1524658 						"/>
					</g>
					<g>
						<polygon fill="#8F8F8F" points="0,667.9985352 79.0347748,637.0782471 0,612.3720703 						"/>
						<polygon fill="#B9B9B9" points="88.0416641,595.9584351 79.0347748,637.0782471 0,612.3720703 						"/>
						<polygon fill="#E1E1E1" points="0,578.6900024 88.0416641,595.9584351 0,612.3720703 						"/>
						<polygon fill="#575757" points="150.4868011,560.8900146 0,578.6900024 0,561.0018921 						"/>
						<polygon fill="#888888" points="88.0416641,595.9584351 150.4868011,560.8900146 0,578.6900024 						"/>
						<polygon fill="#A8A8A8" points="79.0347748,637.0782471 132.3914337,667.9008179 0,667.9985352 						"/>
						<polygon fill="#484848" points="88.0416641,595.9584351 159.7297974,612.2528076 79.0347748,637.0782471 						"/>
						<polygon fill="#666666" points="159.7297974,612.2528076 88.0416641,595.9584351 150.4868011,560.8900146 						"/>
						<polygon fill="#E1E1E1" points="221.7775726,599.3062134 150.4868011,560.8900146 159.7297974,612.2528076 						"/>
						<polygon fill="#575757" points="221.7984009,667.8291016 159.7297974,612.2528076 132.3914337,667.9008179 						"/>
						<polygon fill="#1F1F1F" points="79.0347748,637.0782471 159.7297974,612.2528076 132.3914337,667.9008179 						"/>
						<polygon fill="#B9B9B9" points="150.4868011,560.8900146 221.7775726,599.3062134 242.620697,555.1762085 						"/>
						<polygon fill="#888888" points="221.7984009,667.8291016 221.7775726,599.3062134 159.7297974,612.2528076 						"/>
					</g>
				</g>
				<g>
					<g>
						<polygon fill="#575757" points="1280,666.9830933 1208.4884033,697.9029541 1280,722.6091309 						"/>
						<polygon fill="#666666" points="1199.4815674,739.0228271 1208.4884033,697.9029541 1280,722.6091309 						"/>
						<polygon fill="#484848" points="1280,756.2911987 1199.4815674,739.0228271 1280,722.6091309 						"/>
						<polygon fill="#A8A8A8" points="1154.4378662,800 1280,756.2911987 1280,800 						"/>
						<polygon fill="#1F1F1F" points="1199.4815674,739.0228271 1154.4378662,800 1280,756.2911987 						"/>
						<polygon fill="#888888" points="1208.4884033,697.9029541 1155.1281738,655.1757202 1280,666.9830933 						"/>
						<polygon fill="#B9B9B9" points="1199.4815674,739.0228271 1116.3115234,706.6234741 1208.4884033,697.9029541 						"/>
						<polygon fill="#8F8F8F" points="1116.3115234,706.6234741 1199.4815674,739.0228271 1154.4378662,800 						"/>
						<polygon fill="#484848" points="1078.743042,726.8287964 1154.4378662,800 1116.3115234,706.6234741 						"/>
						<polygon fill="#A8A8A8" points="1053.7856445,674.7820435 1116.3115234,706.6234741 1155.1281738,655.1757202 						"/>
						<polygon fill="#E1E1E1" points="1208.4884033,697.9029541 1116.3115234,706.6234741 1155.1281738,655.1757202 						"/>
						<polygon fill="#666666" points="1154.4378662,800 1078.743042,726.8287964 1053.5882568,800 						"/>
						<polygon fill="#1F1F1F" points="1053.7856445,674.7820435 1078.743042,726.8287964 1116.3115234,706.6234741 						"/>
					</g>
					<g>
						<polygon fill="#8F8F8F" points="842.9178467,682.7635498 921.9821167,698.1327515 854.0117188,722.9480591 						"/>
						<polygon fill="#B9B9B9" points="931.0139771,739.2381592 921.9821167,698.1327515 854.0117188,722.9480591 						"/>
						<polygon fill="#E1E1E1" points="854.0219727,756.6300659 931.0139771,739.2381592 854.0117188,722.9480591 						"/>
						<polygon fill="#575757" points="975.6239014,800 854.0219727,756.6300659 853.7998047,800 						"/>
						<polygon fill="#888888" points="931.0139771,739.2381592 975.6239014,800 854.0219727,756.6300659 						"/>
						<polygon fill="#A8A8A8" points="921.9821167,698.1327515 967.8286743,657.692627 842.9178467,682.7635498 						"/>
						<polygon fill="#484848" points="931.0139771,739.2381592 1002.6921387,722.8287964 921.9821167,698.1327515 						"/>
						<polygon fill="#666666" points="1002.6921387,722.8287964 931.0139771,739.2381592 975.6239014,800 						"/>
						<polygon fill="#E1E1E1" points="1078.743042,726.8287964 975.6239014,800 1002.6921387,722.8287964 						"/>
						<polygon fill="#575757" points="1053.7856445,674.7820435 1002.6921387,722.8287964 967.8286743,657.692627 						"/>
						<polygon fill="#1F1F1F" points="921.9821167,698.1327515 1002.6921387,722.8287964 967.8286743,657.692627 						"/>
						<polygon fill="#B9B9B9" points="975.6239014,800 1078.743042,726.8287964 1053.5882568,800 						"/>
						<polygon fill="#888888" points="1053.7856445,674.7820435 1078.743042,726.8287964 1002.6921387,722.8287964 						"/>
					</g>
					<g>
						<polygon fill="#575757" points="842.9178467,682.7635498 786.0263062,698.2418213 854.0117188,722.9480591 						"/>
						<polygon fill="#666666" points="777.0194092,739.3616943 786.0263062,698.2418213 854.0117188,722.9480591 						"/>
						<polygon fill="#484848" points="854.0219116,756.6300659 777.0194092,739.3616943 854.0117188,722.9480591 						"/>
						<polygon fill="#A8A8A8" points="731.975647,800 854.0219116,756.6300659 853.7998047,800 						"/>
						<polygon fill="#1F1F1F" points="777.0194092,739.3616943 731.975647,800 854.0219116,756.6300659 						"/>
						<polygon fill="#888888" points="786.0263062,698.2418213 732.1707153,667.4196777 842.9178467,682.7635498 						"/>
						<polygon fill="#B9B9B9" points="777.0194092,739.3616943 705.3312378,723.0673218 786.0263062,698.2418213 						"/>
						<polygon fill="#8F8F8F" points="705.3312378,723.0673218 777.0194092,739.3616943 731.975647,800 						"/>
						<polygon fill="#484848" points="642.7803345,722.1548462 731.975647,800 705.3312378,723.0673218 						"/>
						<polygon fill="#A8A8A8" points="625.2421875,672.1674194 705.3312378,723.0673218 732.1707153,667.4196777 						"/>
						<polygon fill="#E1E1E1" points="786.0263062,698.2418213 705.3312378,723.0673218 732.1707153,667.4196777 						"/>
						<polygon fill="#666666" points="731.975647,800 642.7803345,722.1548462 642.5853271,800 						"/>
						<polygon fill="#1F1F1F" points="625.2421875,672.1674194 642.7803345,722.1548462 705.3312378,723.0673218 						"/>
					</g>
					<g>
						<polygon fill="#8F8F8F" points="433.02948,667.659668 499.519928,698.4716797 432.5474243,723.2861328 						"/>
						<polygon fill="#B9B9B9" points="508.5517883,739.5770264 499.519928,698.4716797 432.5474243,723.2861328 						"/>
						<polygon fill="#E1E1E1" points="432.5576477,756.9681396 508.5517883,739.5770264 432.5474243,723.2861328 						"/>
						<polygon fill="#575757" points="553.1617432,800 432.5576477,756.9681396 432.3355103,800 						"/>
						<polygon fill="#888888" points="508.5517883,739.5770264 553.1617432,800 432.5576477,756.9681396 						"/>
						<polygon fill="#A8A8A8" points="499.519928,698.4716797 553.3567505,667.5631104 433.02948,667.659668 						"/>
						<polygon fill="#484848" points="508.5517883,739.5770264 580.2299805,723.1676636 499.519928,698.4716797 						"/>
						<polygon fill="#666666" points="580.2299805,723.1676636 508.5517883,739.5770264 553.1617432,800 						"/>
						<polygon fill="#E1E1E1" points="642.7803345,722.1548462 553.1617432,800 580.2299805,723.1676636 						"/>
						<polygon fill="#575757" points="625.2421875,672.1674194 580.2299805,723.1676636 553.3567505,667.5631104 						"/>
						<polygon fill="#1F1F1F" points="499.519928,698.4716797 580.2299805,723.1676636 553.3567505,667.5631104 						"/>
						<polygon fill="#B9B9B9" points="553.1617432,800 642.7803345,722.1548462 642.5853271,800 						"/>
						<polygon fill="#888888" points="625.2421875,672.1674194 642.7803345,722.1548462 580.2299805,723.1676636 						"/>
					</g>
					<g>
						<polygon fill="#575757" points="433.02948,667.659668 365.559906,698.5791016 432.5474243,723.2861328 						"/>
						<polygon fill="#666666" points="356.553009,739.6989746 365.559906,698.5791016 432.5474243,723.2861328 						"/>
						<polygon fill="#484848" points="432.5576477,756.9681396 356.553009,739.6989746 432.5474243,723.2861328 						"/>
						<polygon fill="#A8A8A8" points="311.5,800 432.5576477,756.9681396 432.3355103,800 						"/>
						<polygon fill="#1F1F1F" points="356.553009,739.6989746 311.5,800 432.5576477,756.9681396 						"/>
						<polygon fill="#888888" points="365.559906,698.5791016 311.7042847,667.756958 433.02948,667.659668 						"/>
						<polygon fill="#B9B9B9" points="356.553009,739.6989746 284.8648682,723.404541 365.559906,698.5791016 						"/>
						<polygon fill="#8F8F8F" points="284.8648682,723.404541 356.553009,739.6989746 311.5,800 						"/>
						<polygon fill="#484848" points="234.5064087,726.3226318 311.5,800 284.8648682,723.404541 						"/>
						<polygon fill="#A8A8A8" points="222.7962799,667.8283081 284.8648682,723.404541 311.7042847,667.756958 						"/>
						<polygon fill="#E1E1E1" points="365.559906,698.5791016 284.8648682,723.404541 311.7042847,667.756958 						"/>
						<polygon fill="#666666" points="311.5,800 234.5064087,726.3226318 222.1023254,800 						"/>
						<polygon fill="#1F1F1F" points="222.7962799,667.8283081 234.5064087,726.3226318 284.8648682,723.404541 						"/>
					</g>
					<g>
						<polygon fill="#8F8F8F" points="0,667.9977417 79.0535278,698.8088989 0,723.6241455 						"/>
						<polygon fill="#B9B9B9" points="88.0853958,739.9143066 79.0535278,698.8088989 0,723.6241455 						"/>
						<polygon fill="#E1E1E1" points="0,757.3062134 88.0853958,739.9143066 0,723.6241455 						"/>
						<polygon fill="#575757" points="132.6953583,800 0,757.3062134 0,800 						"/>
						<polygon fill="#888888" points="88.0853958,739.9143066 132.6953583,800 0,757.3062134 						"/>
						<polygon fill="#A8A8A8" points="79.0535278,698.8088989 133.3893127,667.9000244 0,667.9977417 						"/>
						<polygon fill="#484848" points="88.0853958,739.9143066 159.7635956,723.5048828 79.0535278,698.8088989 						"/>
						<polygon fill="#666666" points="159.7635956,723.5048828 88.0853958,739.9143066 132.6953583,800 						"/>
						<polygon fill="#E1E1E1" points="234.5064087,726.3226318 132.6953583,800 159.7635956,723.5048828 						"/>
						<polygon fill="#575757" points="222.7962799,667.8283081 159.7635956,723.5048828 133.3893127,667.9000244 						"/>
						<polygon fill="#1F1F1F" points="79.0535278,698.8088989 159.7635956,723.5048828 133.3893127,667.9000244 						"/>
						<polygon fill="#B9B9B9" points="132.6953583,800 234.5064087,726.3226318 222.1023102,800 						"/>
						<polygon fill="#888888" points="222.7962799,667.8283081 234.5064087,726.3226318 159.7635956,723.5048828 						"/>
					</g>
				</g>
			</g>
		</g>
	</g>
</g>
</svg>
